<?xml version="1.0" encoding="utf-8"?>
<!-- Generator: Adobe Adobe Illustrator 24.2.0, SVG Export Plug-In . SVG Version: 6.00 Build 0)  -->
<svg version="1.1" id="Layer_1" xmlns="http://www.w3.org/2000/svg" xmlns:xlink="http://www.w3.org/1999/xlink" x="0px" y="0px"
	 viewBox="0 0 512 512" style="enable-background:new 0 0 512 512;" xml:space="preserve">
<style type="text/css">
	.st0{fill:#00FF00;}
	.st1{fill:#858585;}
</style>
<path d="M201.99,120.31c-4.88-4.69-12.83-5.4-19.77-5.65c1.28-14.81,2.75-29.26,0.16-44.28c-2.04-11.85-5.13-24.89-13.56-33.95
	c-9.81-10.55-24.88-9.28-37.31-4.6c-14.05,5.29-27.49,14.35-34.04,28.27c-3.97,8.43-5.83,17.54-8.24,26.49
	c-2.33,8.65-4.37,17.37-3.46,26.28c-5.06,0.01-10.13,0.13-15.14,0.64c-4.16,0.43-8.29,1.47-10.69,5.2
	c-2.37,3.67-2.55,8.64-2.74,13.01c-4.68,27.97-8.21,56.1-12.04,84.19c-1.92,14.11-4.06,28.19-6.04,42.29
	c-0.87,6.19-1.71,12.4-2.46,18.61c-0.75,6.17-2.17,12.84-1.76,19.06c1.41,21.29,27.79,24.93,44.31,27.81
	c27.42,4.77,54.48,11.47,81.87,16.42c8.92,1.61,20.1,4.75,23.32-6.71c2.12-7.57,0.87-15.65,1.85-23.36
	c3.59-28.06,10.46-55.58,14.79-83.52c4.18-27,4.38-53.9,4.82-81.14C205.99,137.43,208.43,126.49,201.99,120.31z M99.59,91.13
	c1.83-6.89,3.32-13.96,5.67-20.69c4.52-12.99,14.17-21.21,26.5-26.71c9.15-4.08,21.94-7.66,29.52,1.01
	c6.53,7.47,8.58,18.63,10.24,28.11c2.44,13.92,0.91,27.56-0.39,41.38c-1.82-0.1-3.63-0.21-5.45-0.32c0.01-0.1,0.01-0.21,0.02-0.31
	c0.43-5.29,0.9-10.58,1.2-15.88c0.63-11.1,0.94-22.79-1.98-33.63c-2.64-9.8-9.18-19.02-20.26-19.27
	c-13.69-0.31-25.78,11.18-31.7,22.53c-7.24,13.89-9.82,30.06-9.5,45.64c-2.17-0.02-4.35-0.04-6.52-0.06
	c-0.01-0.08-0.02-0.16-0.03-0.24C95.68,105.51,97.76,98.02,99.59,91.13z M139.19,112.92c-8.46,0.17-16.9,0.18-25.34,0.13
	c0.08-14.75,2.65-30.64,10.48-43.24c5.2-8.37,21.12-21.29,27.93-8c4.95,9.66,4.11,22.46,3.63,32.95
	c-0.27,5.95-0.78,11.88-1.27,17.82c-0.02,0.21-0.04,0.43-0.06,0.65C149.46,112.98,144.35,112.82,139.19,112.92z M195.93,143.23
	c-1,11.88-0.74,23.95-1.37,35.87c-0.65,12.33-1.5,24.59-3.15,36.83c-3.34,24.72-9.02,49.05-13.19,73.64
	c-1.57,9.23-3.31,18.56-3.49,27.94c-0.07,3.42-0.03,6.93-0.53,10.33c-0.09,0.65-0.16,2.26-0.56,3.09c-0.09-0.17-0.88,0.02-1.22-0.01
	c-1.81-0.15-3.67-0.76-5.46-1.09c-24.74-4.56-49.29-10.03-73.98-14.89c-8.7-1.71-17.55-2.91-26.17-5
	c-6.7-1.63-17.89-4.3-20.34-11.85c-1.68-5.17,0.31-12.23,0.91-17.49c0.78-6.81,1.68-13.61,2.64-20.4
	c1.95-13.78,4.03-27.55,5.88-41.34c2.75-20.44,5.34-40.91,8.32-61.32c1.12-0.62,1.92-1.8,1.89-3.56
	c-0.06-5.17,0.44-10.25,1.19-15.36c0.34-2.33,0.71-4.65,0.97-6.99c0.14-1.26-0.04-5.59,0.91-6.65c0.82-0.92,5.96-0.62,7.12-0.68
	c6.32-0.3,12.65-0.31,18.97-0.23c12.09,0.16,24.15,0.44,36.25,0.13c7.59-0.19,15.11-0.27,22.63-0.05c0.1,0.77,0.24,1.53,0.45,2.28
	c1.38,4.82,8.27,4.73,9.69,0c0.17-0.57,0.31-1.16,0.43-1.74c1.72,0.13,3.44,0.27,5.16,0.44c0.12,0.01,0.24,0.02,0.36,0.03
	c-0.37,6.95,10.21,7.06,11.12,0.42c3.1,0.09,6.19,0.3,9.22,0.94c2.68,0.57,4.92,1.04,5.69,3.87
	C197.36,134.34,196.27,139.22,195.93,143.23z"/>
<path d="M179.13,146.34c0.34-9.62-9.51-11.16-17.07-11.62c-8.94-0.54-17.81,0.57-26.71,1.12c-16.36,1-33.76,0.95-49.62,5.48
	c-2.52,0.72-3.37,3.17-2.82,5.21c-0.97,0.36-1.78,1.16-2.1,2.51c-1.79,7.57-6.35,14.55-6.8,22.45c-0.54,9.44,8.52,10.66,15.88,10.5
	c13.02-0.28,26.18,1.08,39.2,1.44c13.74,0.38,28.15-1.54,41.72,0.89c2.55,0.46,5.25-0.66,5.96-3.38c1.77-6.8-1.45-13.09-0.75-19.82
	C176.54,156.12,178.95,151.45,179.13,146.34z M139.71,174.29c-12.22-0.05-24.44-0.65-36.65-1.15c-4.77-0.19-9.53-0.46-14.3-0.23
	c-2.76,0.14-6.65,1.3-6.3-2.32c0.67-6.74,4.33-12.93,5.75-19.5c0.12-0.54,0.11-1.04,0.04-1.5c14.24-0.12,28.59-3.1,42.76-4.41
	c7.89-0.73,15.75-1.89,23.66-2.38c4.13-0.26,8.42-0.55,12.53,0c4.29,0.57,5.6,0.9,4.42,5.48c-1.1,4.27-3.36,8.16-3.98,12.55
	c-0.64,4.45,0.41,9.04,0.3,13.5C158.55,173.51,149.17,174.33,139.71,174.29z"/>
<path d="M102.36,195.68c-2.76-5.74-9.15-8.42-15.29-8.22c-4.81,0.15-13,2.75-12.35,8.39c-0.54,0.53-0.98,1.21-1.27,2.06
	c-2.4,7.15-1.04,15.3,6.17,18.98c6.02,3.08,14.22,2.24,19.4-2.15C104.37,210.23,105.32,201.84,102.36,195.68z M95.21,204.61
	c-1.22,3.22-5.72,4.07-8.76,3.63c-3.79-0.55-4.8-3.13-3.37-7.67c0.37-1.2,0.31-2.25-0.04-3.14c0.41-0.22,1.27-0.68,1.07-0.6
	c1.75-0.73,3.81-0.98,5.69-0.79C94.2,196.47,96.9,200.14,95.21,204.61z"/>
<path d="M123.99,189.01c-5.94-1.46-16.94,0.28-15.09,8.46c-3.34,5.26-5.13,12.29,0.61,16.65c4.78,3.62,11.77,3.24,17.13,1.21
	c5.65-2.14,10.96-6.63,10.71-13.19C137.07,195.14,130.19,190.53,123.99,189.01z M127.98,205.3c-2.92,2.31-7.88,2.81-11.16,2.08
	c-1.55-0.34-2.1-0.68-2.23-1.18c-0.28-1.09,1.42-4,2.5-5.57c0.9-1.3,0.94-2.57,0.47-3.62c2.02-0.79,5.36,0.02,7.37,0.89
	C128.03,199.23,131.58,202.45,127.98,205.3z"/>
<path d="M162.78,189.11c-6.88-1.62-14.89-0.43-21.59,1.54c-4.44,1.31-3.48,7.76,1.08,7.96c0.23,0.01,0.47,0,0.7,0.01
	c-2.17,6.09-0.26,12.54,6.95,14.91c7.54,2.48,16.49-0.85,20.34-7.81C174.36,198.31,170.84,191.01,162.78,189.11z M155.04,204.18
	c-4.25,0.22-4.97-1.61-2.92-5.17c0.11-0.18,0.17-0.36,0.25-0.54c0.76-0.02,1.52-0.03,2.28-0.02c1.81,0.02,3.66,0.06,5.44,0.41
	c0.64,0.13,1.3,0.33,1.89,0.55C161.11,202.4,158.06,204.02,155.04,204.18z"/>
<g>
	<path d="M87.57,222.33c-3.59,0.77-7.76,3.27-10.83,6.57c-1.38,0.21-2.66,1.08-3.22,2.81c-0.44,1.36-0.73,2.77-0.85,4.17
		c-0.27,1.05-0.4,2.11-0.33,3.17c0.06,0.87,0.36,1.58,0.8,2.13c1.04,3.39,3.65,5.92,8.43,6.04c6.35,0.16,13.5-4.14,16.58-9.64
		C102.43,229.97,96.5,220.41,87.57,222.33z M88.74,233.51c-1.26,1.68-4.37,3.73-7.02,4.27c-0.14,0.03-0.22,0.05-0.27,0.06
		c-0.02,0-0.05,0-0.1,0.01c-0.18,0.01-0.29,0.04-0.37,0.06c-0.05-0.12-0.09-0.25-0.1-0.36c-0.01-0.06,0-0.13,0-0.19
		c1.88-2.4,4.9-4.43,7.37-5.29c0.45-0.16,1.05-0.24,1.4-0.3c0-0.01,0-0.02,0-0.03c0.01,0,0.01,0,0.02,0.01c0,0.01,0,0.01,0,0.02
		c0.01,0,0.01,0,0.02,0c-0.03,0.04-0.04,0.12-0.04,0.27c0-0.06,0-0.1,0-0.15c-0.02,0.09-0.04,0.2-0.09,0.32
		c-0.01,0.01-0.01,0.02-0.01,0.03c-0.04,0.07-0.08,0.14-0.14,0.25C89.22,232.83,88.99,233.18,88.74,233.51z"/>
	<path d="M89.66,231.87c0.01-0.05,0.01-0.09,0.02-0.12c-0.01,0-0.01,0-0.02,0C89.66,231.79,89.66,231.83,89.66,231.87z"/>
</g>
<path d="M119.56,226.25c-3.26-0.32-6.72,0.31-9.63,1.86c-2.46,1.31-4.97,4.14-5.17,7.05c-1.66,3.41-2.01,7.24,1.02,10.38
	c3.45,3.58,9.08,3.96,13.67,2.97c4.86-1.05,9.44-4.34,10.66-9.36C131.83,232.05,126.13,226.91,119.56,226.25z M115.75,238.55
	c-0.24,0.02-0.63,0.05-0.71,0.04c-0.17,0-0.7-0.03-1.11-0.04c0.01-0.02,0.03-0.04,0.04-0.06c0.31-0.22,0.64-0.44,1.03-0.64
	c0.99-0.51,2.31-0.85,4.01-0.71c-0.1-0.01,0.1,0.02,0.32,0.06c-0.15,0.1-0.3,0.21-0.35,0.24c-0.3,0.16-0.76,0.4-1.02,0.53
	c0.43-0.23-1.19,0.35-1.54,0.45C116.35,238.45,115.99,238.51,115.75,238.55z"/>
<path d="M157.27,229.64c-4.41-1.52-10.1-1.47-14.58-0.2c-2.7,0.77-3.75,4.22-2.6,6.44c-1.8,5.46,0.31,11.16,6.31,13.39
	c5.61,2.08,12.55,0.33,15.99-4.69C166.45,238.64,163.88,231.92,157.27,229.64z"/>
<path d="M94.34,266.7c-0.39-6.64-6.44-10.69-12.62-11.13c-1.84-0.13-3.64,0.13-5.29,0.72c-1.66-0.9-3.77-0.95-5.24,0.66
	c-4.53,4.96-6.97,11.91-3.17,18.08c3.14,5.1,9.59,7.62,15.39,6.32C89.76,279.92,94.73,273.18,94.34,266.7z M81.37,270.78
	c-0.04,0.02-0.07,0.04-0.1,0.05c-0.06,0.01-0.2,0.06-0.46,0.16c-0.12,0.05-0.2,0.08-0.26,0.11c0,0,0,0-0.01,0
	c-0.11,0.01-0.71,0.01-1,0.02c-0.25-0.05-0.65-0.11-0.73-0.13c-0.18-0.05-0.78-0.3-0.83-0.31c-0.34-0.18-0.68-0.38-0.98-0.6
	c0.41,0.31-0.16-0.34-0.49-0.67c0.26-0.27,0.48-0.58,0.64-0.96c0.18-0.42,0.38-0.83,0.61-1.23c0.06-0.11,0.1-0.19,0.13-0.25
	c0.05-0.04,0.1-0.1,0.18-0.18c0.2-0.2,0.62-0.45,0.49-0.38c0.31-0.17,0.73-0.22,1.07-0.3c-1.14,0.26,0.13-0.02,0.44-0.01
	c0.33,0.01,0.65,0.01,0.98,0.02c0.13,0.04,0.77,0.15,0.88,0.18c0.05,0.02,0.27,0.09,0.47,0.16c0.05,0.04,0.25,0.13,0.44,0.22
	c0.09,0.08,0.44,0.31,0.57,0.45c0.01,0.03,0.01,0.05,0.03,0.1c-0.03,0.29-0.06,0.67-0.04,0.71c-0.19,0.73-0.49,1.34-0.99,2
	C82.2,270.21,81.69,270.61,81.37,270.78z"/>
<path d="M124.41,269.01c-2.19-6.25-9.53-8.64-15.6-8.1c-3.41,0.3-6.79,1.39-9.17,3.97c-2.37,2.58-3.15,7.4-0.54,10.11
	c-0.71,3.68-0.02,7.34,3.74,9.65c4.5,2.76,10.6,1.54,14.94-0.95C122.9,280.74,126.5,274.97,124.41,269.01z M113.11,273.8
	c0.19-0.22-1.29,0.83-1.66,1.02c-0.47,0.25-1.37,0.49-2.08,0.64c0.39-0.9,0.76-1.76,1.31-2.67c0.33-0.54,0.54-1.08,0.65-1.61
	c0.04,0,0.08,0,0.11,0c1.04,0.07,2.16,0.65,2.82,1.04c0,0.1,0,0.21-0.03,0.31c-0.07,0.11-0.15,0.22-0.2,0.31
	C113.82,273.08,113.37,273.55,113.11,273.8z"/>
<path d="M158.09,274.65c-2.3-7.77-11.2-11.42-18.6-10.38c-3.05,0.43-3.83,3.52-2.92,5.97c-3.03,3.54-4.53,8.2-3.36,13
	c1.49,6.14,7.38,10.03,13.6,8.38C154,289.7,160.36,282.33,158.09,274.65z M147.06,278.7c-0.82,1.1-2.11,1.46-3,1.99
	c-0.03-0.17-0.07-0.36-0.1-0.5c0.01-0.16,0.03-0.35,0.04-0.51c0.09-0.22,0.35-1.38,0.16-0.96c0.46-1.13,0.91-1.53,1.72-2.07
	c0.15-0.1,0.29-0.21,0.42-0.31c0.42,0.41,0.77,0.86,1.02,1.37C147.51,278.13,147.62,277.96,147.06,278.7z"/>
<path d="M75.79,284.95c-3.26-0.29-6.91,0.14-9.72,1.95c-3.54,2.27-4.93,6.97-2.61,10.61c0.6,0.94,1.49,1.56,2.46,1.88
	c0.33,5.14,3.51,9.49,9.62,9.89c6.71,0.44,13.31-4.35,14.27-11.11C91.02,289.72,83.02,285.6,75.79,284.95z M78.5,298.61
	c0.21-0.13-1.23,0.58-1.1,0.57c-0.49,0.13-1.64,0.38-0.91,0.26c-1.15,0.18-0.36,0.01-1.06-0.08c-0.01-0.1-0.01-0.16,0-0.04
	c-0.06-1.02,0.18-1.84,0.47-2.81c0.1-0.32,0.15-0.63,0.19-0.93c0.91,0.17,2.55,0.71,3.14,0.99c0.16,0.08,0.27,0.14,0.33,0.18
	c-0.03,0.05-0.04,0.08,0.01,0c0,0,0,0,0.01,0C79.03,297.75,79.36,298.07,78.5,298.61z"/>
<g>
	<path d="M109.91,293.27c-4.84-2.07-12.21-1.71-14.86,3.68c-0.84,1.71-0.89,3.62,0.01,5.22c-0.93,2.09-1.24,4.4-0.52,6.87
		c1.42,4.83,6.28,7.9,11.23,7.48c6.07-0.51,11.61-5.9,11.96-12.06C118.02,299.35,114.39,295.18,109.91,293.27z M106.17,305.14
		c-0.14,0.14-0.48,0.46-0.61,0.61c-0.17,0.1-0.5,0.31-0.65,0.39c-0.1,0.03-0.21,0.05-0.32,0.04c-0.02,0-0.02,0-0.04,0
		c0.01-0.01-0.01-0.02-0.07-0.02c0,0-0.01,0-0.01,0c-0.02,0-0.03,0-0.04,0.01c-0.01,0-0.02-0.01-0.01-0.01c0,0,0,0,0,0
		c-0.04,0-0.14-0.02-0.24-0.03c-0.08-0.04-0.17-0.09-0.26-0.14c0.03-0.03,0.04-0.05,0,0c-0.01-0.01-0.02-0.01-0.03-0.02
		c0.03-0.09,0.03-0.13-0.02-0.08c0-0.01-0.01-0.02-0.01-0.02c0.14-0.25,0.35-0.64,0.38-0.68c0.49-0.66,1.42-1.37,2.21-1.89
		c0.02-0.02,0.04-0.03,0.06-0.05c0.06,0.05,0.13,0.09,0.14,0.08c0.08,0.09,0.14,0.15,0.18,0.2c-0.04,0.12,0.05,0.22,0.11,0.22
		c0,0.06,0,0.11,0,0.17c-0.07,0.1-0.13,0.2-0.01,0.02c0-0.01,0-0.01,0.01-0.01c0,0.01,0,0.02,0,0.03c-0.15,0.26-0.45,0.77-0.43,0.74
		C106.5,304.71,106.25,305.03,106.17,305.14z"/>
	<path d="M104.43,306.14c0.03,0,0.05,0,0.07,0.01C105.48,306,104.47,306.09,104.43,306.14z"/>
</g>
<g>
	<path d="M152.86,301.22c-3.32-5.25-11.49-8.42-17.35-6c-2.02,0.83-3.58,2.36-3.58,4.7c0,1.32,0.64,2.73,1.66,3.68
		c-0.9,0.49-1.72,1.21-2.39,2.09c-3.56,4.65-2.64,11.32,2.76,14.1c4.58,2.35,10.57,1.77,14.74-1.19
		C154.08,314.78,156.55,307.05,152.86,301.22z M143.08,308.66c-0.02,0.07-0.05,0.13-0.07,0.19c-0.08,0.09-0.19,0.21-0.29,0.31
		c-0.16,0.07-0.63,0.38-0.82,0.53c-0.09,0.02-0.2,0.06-0.33,0.1c0.31-1.39-0.05-2.94-0.83-4.2c0.61,0.19,1.07,0.38,1.09,0.4
		c0.33,0.17,0.64,0.35,0.96,0.55c0.05,0.03,0.08,0.05,0.11,0.07c0.01,0.01,0.02,0.01,0.03,0.03c0.06,0.05,0.33,0.26,0.47,0.38
		c0,0.01,0.01,0.03,0.01,0.04c-0.02-0.01-0.03-0.02-0.06-0.04c-0.33-0.22,0.16,0.44,0.08,0.08c0.05,0.16,0.1,0.32,0.13,0.48
		c0,0.11-0.02,0.25-0.07,0.33c-0.03,0.04-0.06,0.09-0.1,0.15C143.43,308.01,143.07,308.67,143.08,308.66z"/>
	<path d="M143.33,308.15c0.02-0.03,0.04-0.07,0.06-0.1C143.39,308.06,143.37,308.08,143.33,308.15z"/>
</g>
<path class="st0" d="M193.11,312.63c-9.03-7.75-25-6.99-32.5,2.52c-0.52,0.65-0.84,1.39-1,2.15c-1.84,2.53-3.18,5.31-3.92,8.17
	c-8.54-12.16-33.76-12.95-35.07,4.9c-0.06,0.83,0.13,1.57,0.49,2.19c-1.52,5.67-1.88,11.76,0.5,16.36c-0.31,0-0.63,0.03-0.95,0.09
	c-3.57,0.63-6.93,2.61-10.43,3.65c-0.83,0.24-1.66,0.47-2.5,0.7c-0.19-2.73-0.11-5.49-0.09-8.23c0.04-5.97-0.12-11.98-2.18-17.66
	c-1.37-3.77-6.1-5.56-9.18-2.42c-4.35,4.42-8.25,9.22-11.9,14.22c-4.24,5.81,5.45,11.41,9.65,5.64c0.73-1,1.48-1.98,2.24-2.96
	c-0.07,5.14-0.5,10.47,0.29,15.23c-2.61,3.22-0.36,9.22,4.34,9.21c2.37,2.02,6.01,0.93,7.52-1.55c6.26-1.38,13.12-3.13,17.08-7.54
	c0.89-0.99,1.32-2.09,1.39-3.14c1,0.53,2.12,0.98,3.38,1.32c10.51,2.83,23.85-5.45,27.34-15.71c0.96,1.6,2.21,3.12,3.76,4.54
	c8.49,7.7,21.64,7.94,30.08,0.04C200.31,336.02,203.1,321.2,193.11,312.63z M148.06,334.02c-0.39,5.35-8.54,11.15-13.7,10.76
	c-7.42-0.56-1.61-12.86,0.24-16.28c0.37-0.69,0.58-1.37,0.67-2.02c1.23-0.36,2.63-0.46,4.26-0.25
	C143.51,326.75,148.39,329.44,148.06,334.02z M183.96,336.08c-4.1,3.87-10.2,3.96-14.58,0.45c-5.48-4.4-3.3-10.4,1.04-14.7
	c0.58-0.58,0.99-1.2,1.26-1.83c4.24-2.01,8.84-2.79,13.2,0.24C190.68,324.27,188.46,331.83,183.96,336.08z"/>
<path class="st0" d="M216.49,291.42c-1.98,8.64-6.9,16.34-10.3,24.46c-2.82,6.74-7.03,18.2-1.96,24.86
	c3.03,3.98,9.07,2.75,9.46-2.56c0.25-3.49-0.62-6.64,0.16-10.17c0.91-4.09,2.57-7.98,4.33-11.77c3.31-7.11,7.32-14.14,9.09-21.85
	C228.87,287.39,218.1,284.4,216.49,291.42z"/>
<path class="st0" d="M248.51,317.72c-4.55-3.03-12.17-3.96-17.48-3.07c-1.81,0.11-3.5,1.15-4.61,2.75
	c-4.27,6.13-4.52,14.6,1.53,19.68c5.72,4.8,14.08,4.41,19.6-0.52C252.99,331.69,255.48,322.36,248.51,317.72z M240.88,327.49
	c-1,1.19-1.62,1.66-2.99,1.9c0.1-0.04-0.65,0.01-0.79-0.01c-0.25-0.03-0.21-0.02-0.13,0c-0.06-0.01-0.15-0.03-0.27-0.06
	c-0.24-0.05-0.48-0.14-0.72-0.22c-0.13-0.08-0.53-0.28-0.62-0.35c0.16,0.12-0.7-0.7-0.57-0.54c-0.08-0.11-0.3-0.57-0.35-0.65
	c-0.06-0.17-0.1-0.35-0.13-0.52c0.01-0.19,0.03-0.55,0.07-0.7c0.06-0.22,0.06-0.28,0.04-0.26c0.04-0.11,0.09-0.23,0.16-0.4
	c0.26-0.66,0.6-1.27,0.99-1.87c1.85,0.31,3.71,0.56,5.49,1.12c0.79,0.25,0.8,0.29,1.21,0.51c-0.02,0.06-0.04,0.13-0.07,0.19
	C241.99,325.97,241.3,326.99,240.88,327.49z"/>
<path class="st0" d="M199.41,284.19c-6.55,1.22-14.58,4.26-19.33,9.06c-4.2,4.24,1.09,10.25,6.09,7.89
	c0.33-0.16,0.74-0.35,1.18-0.57c1.33,2.48,3.79,4.39,7.4,5.16c7.34,1.56,16.06-2.35,18.13-9.91
	C215.41,286.57,207.22,282.73,199.41,284.19z M197.93,295.89c0.78-0.27,1.57-0.52,2.36-0.72c-0.5,0.3-1.05,0.55-1.81,0.65
	C198.28,295.86,198.11,295.87,197.93,295.89z"/>
<path class="st0" d="M137.88,391.7c-2.68-4.94-8.03-8.17-12.21-11.7c-1.81-1.53-3.77-3.11-5.08-5.11c1.1-0.69,2.39-1.23,3.65-1.67
	c6.75-2.35,3.85-13.14-2.97-10.78c-5.84,2.03-12.57,5.52-12.15,12.71c0.35,6.02,5.83,10.45,10.12,13.97
	c2.66,2.18,10.23,6.32,9.14,10.47c-1.59,6.06-12.1,4.08-16.35,4.71c-4.73,0.71-4.39,7.09-1.21,9.28c5.83,4.02,16.29,1.39,21.72-2.26
	C138.94,407,141.7,398.74,137.88,391.7z"/>
<path class="st0" d="M163.56,390.29c-4.42,1.09-8.48,3.3-12.49,5.58c-0.45-2.16-0.62-4.35-0.73-6.57c-0.05-0.94-0.09-1.88-0.13-2.82
	c4.64-2.95,9.9-4,15.2-6.22c3.99-1.67,5.11-8.04,0-9.28c-5.2-1.26-11.12,0.26-16.42,2.99c-1.92-5.83-11.62-2.79-10.54,3.92
	c0.17,1.08,0.28,2.24,0.35,3.46c-0.16,0.16-0.33,0.31-0.48,0.47c-2.69,2.8-1.63,6.39,0.7,8.29c0.14,4.7,0.55,9.45,2.31,13.26
	c-0.48,3.83,3.78,8.28,8.44,5.96c0.12-0.06,0.24-0.12,0.36-0.18c0.46-0.15,0.89-0.37,1.28-0.64c5.46-2.73,11.02-5.62,16.03-9.02
	C172.09,396.35,169.29,388.87,163.56,390.29z"/>
<path class="st0" d="M167.39,355.77c-6.65-3.88-15.33-0.3-21.7,2.55c-2.75,1.23-3.41,5.24-2,7.64c1.66,2.83,4.88,3.24,7.64,2
	c2.31-1.03,4.74-1.93,7.23-2.41c2.53-0.48,5.11-0.31,7.65-0.79C170.5,363.97,170.84,357.79,167.39,355.77z"/>
<path class="st0" d="M240.79,342.81c-1.66-3.55-7.97-2.79-8.64,1.13c-1.89,11.08,4.19,25.53-8.97,31.82
	c-8.8,4.2-7.99-10.74-6.84-15.81c1.58-7-9.19-9.99-10.78-2.97c-0.98,4.36-1.2,10.04-0.27,15.36c-0.51,0.1-1.02,0.27-1.54,0.57
	c-4.98,2.82-12.87,8.86-18.98,7.6c-7.15-1.47,1.24-12.38,5.02-13.53c6.86-2.09,3.93-12.88-2.97-10.78
	c-11.79,3.6-22.08,21.5-11.53,31.62c9.12,8.75,25.3,1.45,33.39-6.04c2.96,4.67,7.75,7.41,14.93,5.67
	C242.12,382.98,248.12,358.55,240.79,342.81z"/>
<path class="st0" d="M317.1,360.41c-5.49,0.25-10.96,1.64-16.31,2.81c-0.29,0.06-0.55,0.15-0.8,0.24c0.2-2.8,0.07-5.67,0.06-8.45
	c6.33-1.71,12.77-2.73,18.7-5.68c4.14-2.06,2.3-9.36-2.42-8.92c-5.5,0.51-10.92,1.63-16.27,3.02l0.01-3.69
	c0-1.9-0.78-3.29-1.93-4.19c5.72-2.79,11.78-2.36,17.79-4.09c3.59-1.04,4.31-6.06,1.04-7.97c-7.48-4.38-18.29-1.02-25.31,2.84
	c-3.93,2.16-3.22,6.74-0.59,9.03c-1.28,0.88-2.18,2.34-2.18,4.38l0.02,14.63c0.01,4.37-0.34,8.96,0.68,13.24
	c-0.23-0.37-0.52-0.72-0.89-1.02c-3.39-2.8-8.03-3.12-12.15-4.45c-1.92-0.62-3.86-1.3-5.69-2.18c2.55-1.61,5.09-3.22,7.01-5.67
	c3.28-4.19,4-10.09,0.87-14.59c-5.91-8.52-19.67-5.87-24.66,2.1c-0.99,1.58-1.01,3.12-0.44,4.41c-2.62,0.81-4.91,3.28-4.36,6.72
	c1.21,7.61-2.94,17.71,1.88,24.43c3.03,4.22,8.59,2.4,9.25-2.5c0.36-2.67,0.13-5.48,0.02-8.28c3.12,2.38,6.77,4.02,10.46,5.4
	c4.5,1.68,10.76,4.29,15.56,3.09c2.43-0.6,4-3.31,3.72-5.72c1.43,2.67,5.01,3.18,7.27,1.54c1.06,2.16,3.32,3.77,6.32,3.11
	c5.4-1.18,10.84-1.85,15.91-4.13C324.3,367.78,321.92,360.19,317.1,360.41z M265.02,350.77c-1.54,0.97-3.07,1.92-4.54,2.96
	c-0.09-1.25-0.23-2.5-0.43-3.78c-0.03-0.21-0.08-0.41-0.13-0.6c1.19-0.27,2.31-0.99,3.13-2.31c0.96-1.54,6.86-3.46,6.79-0.53
	C269.79,348.21,266.23,350.01,265.02,350.77z"/>
<path class="st0" d="M327.32,327.32c-1.29,6.44-1.99,13.49-1.07,20.01c0.76,5.35,8.38,4.26,9.79,0c1.79-5.43,0.93-11.44,2.06-17.03
	C339.51,323.27,328.74,320.26,327.32,327.32z"/>
<path class="st0" d="M335.83,364.64c-3.1,0-3.11,4.82,0,4.82C338.93,369.46,338.94,364.64,335.83,364.64z"/>
<path d="M313.32,110.21c1.64-7.83,0.59-16.54-2.24-23.36c-2.07-5-5.69-9.97-11.11-11.6c-6.33-1.9-12.21,1.68-16.53,6.04
	c-4.13,4.17,2.26,10.56,6.43,6.43c2.05-2.03,4.93-4.76,7.95-3.14c2.75,1.48,4.1,5.5,4.9,8.29c1.34,4.65,1.84,10.14,0.79,15.14
	c-1.81-3.46-4.28-6.39-8.06-7.53c-6.3-1.9-17.5,4.34-18.39,11.21c-1.16,8.91,10.45,9.54,20.67,7.71c0.15,0.76,0.29,1.45,0.44,2
	c0.98,3.61,5.61,4.76,8.24,2.18c2.68-2.64,4.57-5.91,5.82-9.49C313.17,113.01,313.5,111.56,313.32,110.21z M290.11,109.99
	c-0.3,0.02-0.88-0.02-1.55-0.06c1.44-1.23,3.21-2.48,4.85-1.54c0.46,0.26,0.85,0.64,1.21,1.11
	C293.13,109.72,291.63,109.89,290.11,109.99z"/>
<path d="M355.98,99.8c-1.2-6.99-6.28-12.93-13.81-12.9c-4.58,0.01-8.46,2.11-11.86,5.25c0.77-5.36-7.64-7.46-9.14-1.86
	c-2.41,8.98-5.12,17.89-7.64,26.85c-1.37,4.88,5.38,9.39,8.93,5.2c3.46-4.1,5.66-9.09,8.27-13.74c2.28-4.06,5.32-10.42,9.9-12.37
	c5.76-2.45,6.37,4.8,6.18,8.7c-0.26,5.29-2.87,12.17-0.21,17.08c1.6,2.96,6.58,3.17,8.12,0c1.52-3.15,1.27-6.8,1.51-10.23
	C356.51,107.77,356.66,103.77,355.98,99.8z"/>
<path d="M371.03,73.66c-1.82,10.78-2.45,21.69-3.87,32.52c-1.08,8.19-6.11,19.09-0.87,26.65c2.58,3.72,8.06,2.29,8.39-2.27
	c0.59-8.34,2.64-16.28,3.69-24.57c1.24-9.78,1.81-19.63,3.45-29.36C382.99,69.6,372.22,66.57,371.03,73.66z"/>
<path d="M398.14,103.51c-2.56-0.74-6.17,0.9-6.63,3.76c-0.57,3.58-1.12,7.16-1.49,10.76c-0.36,3.49-0.98,7.39,0.32,10.72
	c1.77,4.5,7.96,4.92,9.59,0c0.98-2.97,0.63-6.18,0.85-9.28c0.23-3.13,0.65-6.24,1.1-9.34C402.33,107.24,401.18,104.38,398.14,103.51
	z"/>
<path d="M404.51,82.88c-3.1,0-3.11,4.82,0,4.82C407.62,87.71,407.62,82.88,404.51,82.88z"/>
<path d="M427.88,74.32c-2.44,2.47-4.9,4.92-7.21,7.51c-2.43,2.72-5.06,5.59-6,9.2c-1,3.85,3.5,7.96,7.12,5.48
	c2.82-1.94,4.78-4.68,7.07-7.19c2.23-2.44,4.58-4.76,6.92-7.1C440.88,77.13,432.95,69.2,427.88,74.32z"/>
<path d="M445.17,108.65c-0.18-0.2-0.79-1.03-1.52-1.99c0.92-0.09,1.76-0.18,2.23-0.17c7.19,0.26,7.18-10.92,0-11.17
	c-5.57-0.2-14.35-0.21-16.03,6.69c-1.3,5.34,3.3,9.93,6.51,13.54c1.46,1.64,7.07,6.75,4.88,9c-3.09,3.17-10.87,0.22-14.33-0.39
	c-4.48-0.79-9.02,4.77-4.89,8.4c8.31,7.31,29.59,5.51,30.61-8.03C453.12,118.14,449.15,113.13,445.17,108.65z"/>
<path class="st1" d="M521.59,250.16c-5.54,0.4-7.41-0.98-6.75-6.61c0.63-5.3,2.91-10.69,5.6-15.25c1.58-2.67,0.25-7.09-3.12-7.67
	c-0.92-0.16-1.91-0.43-2.89-0.65c2.49-3.93-2.86-9.92-7.36-7.07c-1.63,1.03-3.47,1.72-5.37,2.09c-0.39-1.68-1.1-3.19-2.19-4.35
	c-0.11-1.99-1.76-3.28-3.66-3.6c2.48-1.61,2.84-6.17-0.12-7.73c-4.46-2.35-9.12-4.24-13.81-6.11c1.58-6.98,2.85-14.03,4.94-20.19
	c1.28-3.78-3.93-6.57-6.58-3.83c-4.93,5.1-7.95,12.3-10.56,18.93c-1.56-0.72-3.11-1.47-4.63-2.28c-6.34-3.39-11.99,6.26-5.64,9.65
	c2.08,1.11,4.21,2.21,6.38,3.27c-1.46,4.58-2.61,9.32-2.99,14.04c-2.43,2.34-5.88,5.07-7.4,4.12c-0.47-0.29-0.61-1.1-0.6-2.03
	c1.66-2.64,3.02-5.51,4.16-8.44c1.61-1.03,2.35-3.34,1.63-5.12c0.22-3.68-4.88-6.31-7.59-3.31c0,0,0,0,0,0
	c-3.78,0.31-7.7,2.42-10.76,4.36c-2.99,1.88-6.44,4.25-8.95,7.19c-5.32,1.81-11.87,3.56-16.66,0.57c-0.97-0.61-1.78-1.36-2.44-2.21
	c6.56-7.24,10.88-16.67,14.4-25.61c1.99-5.05,4.9-12.54,2.39-17.88c-2.64-5.61-9.8-5.14-14.04-1.76
	c-6.32,5.02-9.57,14.41-11.89,21.83c-1.94,6.21-3.42,13.38-2.55,20.04c-2.34,1.56-4.97,2.97-7.28,3.81
	c-0.6,0.22-1.75,0.54-2.46,0.68c0.1-0.5,0.21-0.99,0.37-1.48c0.81-2.5,2.12-4.88,3.55-7.11c0.33-0.49,0.66-0.99,0.96-1.46
	c3.6-5.69-5.16-10.59-8.92-5.21c-0.52,0.74-1.07,1.57-1.63,2.45c-3.77,5.27-10.19,11.83-16.35,11.28c-3.34-0.3-2.23-2.21-1.06-4.61
	c0.37-0.76,0.78-1.51,1.22-2.25c2.29-2.27,4.26-4.75,5.64-7.45c2.27-4.47-3.92-10.17-7.41-5.72c-1.13,1.44-2.48,3.12-3.84,4.94
	c-2.6,2.61-5.87,4.77-8.76,6.62c-4.66,2.97-10.93,6.8-16.67,6.84c-1.94,0.01-2.9-0.63-3.19-1.55c5.76-5.16,11.26-10.69,18.39-13.73
	c4.48-1.91,1.27-9.13-3.29-7.79c-7.99,2.34-16.45,4.74-22.13,11.25c-1.62,1.85-2.69,4-3.24,6.22c-3.47,2.26-7.14,4.04-11.27,4.82
	c-6.28,1.19-10.88-0.79-14.14-4.38c4.35-6.05,7.31-13.21,9.19-20.26c2.2-8.25,3.85-17.67,2.59-26.22
	c-1.02-6.96-6.8-15.31-14.89-11.3c-6.19,3.07-8.5,11.93-10,18.03c-2.94,11.93-4.81,27.16,0.41,38.95
	c-3.25,3.09-6.95,5.04-10.49,3.52c-3.41-1.47-4.77-4.74-4.82-8.22c2.01-3.68,3.41-7.6,3.38-11.34c-0.02-2.94-3.76-5.4-6.3-3.93
	c1-3.1-0.49-6.93-4.55-6.68c-3.97,0.24-7.4,2.52-10.29,5.48c-2.21,1.32-4.4,2.66-6.46,4.22c-3.73,2.81-7.12,6.04-10.68,9.05
	c-5.5,4.66-16.37,13.84-22.94,6.07c-14.04-16.6,4.91-41.98,21.34-47.69c6.22-2.16,3.56-12.09-2.74-9.93
	c-23.27,7.97-44.07,38.95-28.35,62.31c7.29,10.83,19.9,10.84,30.26,4.36c2.66-1.66,5.15-3.58,7.56-5.6
	c-0.24,2.69,0.18,5.3,1.71,7.55c5.53,8.11,15.52,2.17,20.39-3.26c0.18-0.2,0.36-0.41,0.54-0.62c0.19,0.37,0.38,0.74,0.6,1.11
	c5.15,8.68,15.86,9.71,23.96,4.6c1.24-0.78,2.41-1.65,3.53-2.57c0.62,0.63,1.26,1.25,1.96,1.83c9.48,7.95,22.33,7.41,32.32,0.88
	c1.21,1.74,2.9,3.22,5.1,4.27c7.95,3.78,17.67-0.74,24.51-4.89c0.26-0.16,0.53-0.32,0.79-0.49c0.66,2.53,2.47,4.82,6.01,6.62
	c6.32,3.22,12.77,1.55,18.46-2.16c0.43,0.83,1,1.61,1.74,2.34c5.96,5.82,15.23,2.02,21.37-1.95c5.25,7.72,14.33,8,23.83,5.36
	c1.19,6.61,8,8.32,14.11,5.08c1.29-0.69,2.49-1.48,3.61-2.35c3.19,4.48,9.39,5.34,14.78,2.57c0.66-0.34,1.29-0.7,1.91-1.08
	c2.48,4.66,7.43,7.07,13.89,5.78c0.04-0.01,0.07-0.02,0.11-0.03c1.6,3.78,5.84,6.23,10.88,5.62c5.24-0.63,9.25-5.06,11.27-10.2
	c0.67-0.04,1.33-0.1,2-0.19c0.22,0.33,0.46,0.66,0.74,0.98c1.24,1.39,2.92,2.27,4.73,2.89c-2.59,5.52-4.4,11.67-4.2,17.5
	c0.36,10.86,9.2,14.71,18.89,12.31C527.61,257.8,526.73,249.79,521.59,250.16z M263.97,191.93c-0.85,1.25-1.77,2.44-2.67,3.55
	c-1.69,2.08-3.6,4.21-5.82,5.73c-0.26,0.18-0.85,0.4-1.4,0.63c0.15-0.96,0.35-2.13,0.53-2.68c0.8-2.44,2.01-4.73,3.34-6.92
	c1.12-1.86,2.36-3.64,3.79-5.29c1.9-1.22,3.81-2.46,5.69-3.78C265.72,185.9,264.52,188.87,263.97,191.93z M295.75,190.15
	c-1.17-4.48-1.54-9.28-1.3-13.44c0.21-3.55,2.87-27.78,7.86-26.14c3.48,1.15,1.81,12.04,1.48,14.51
	c-1.07,7.83-3.15,15.86-6.82,22.88C296.64,188.59,296.23,189.34,295.75,190.15z M416.78,177.24c1.06-2.58,4.07-9.52,7.27-9.16
	c0.02,0.08,0.04,0.18,0.04,0.33c0,0.67,0.01,1.33-0.09,2c-0.3,2.13-1.22,4.31-2.04,6.28c-2.57,6.13-6.01,12.78-10.15,18.49
	C412.52,188.52,415.04,181.47,416.78,177.24z M491.55,208.17c-0.1,0.01-0.2,0.01-0.3,0.02c-2.78,0.34-4.65,1.89-5.11,4.61
	c-1.76,1.66-3.42,3.45-4.83,5.36c-2.26,1-4.52,1.67-6.24,1.88c-1.91,0.23-1.78-0.15-2.04-1.62c-0.11-0.6-0.16-1.22-0.19-1.85
	c2.67-3.65,4.58-7.85,6.09-12.31c4.48,1.53,9.05,2.68,13.67,3.22c-0.29,0.14-0.57,0.31-0.83,0.51
	C491.7,208.06,491.63,208.11,491.55,208.17z"/>
<path class="st1" d="M18.95,0.15c-3.1,0-3.11,4.83,0,4.83C22.06,4.97,22.06,0.15,18.95,0.15z"/>
</svg>
